<svg width="396" height="108.88161660716096" viewBox="0 0 369.6666666666667 101.64117240516963" class="css-1j8o68f"><defs id="SvgjsDefs1315"></defs><g id="SvgjsG1316" featurekey="HKaMnE-0" transform="matrix(23.60717517856965,0,0,23.60717517856965,-11.351268465562882,-4.685551825959761)" fill="#d72323"><g xmlns="http://www.w3.org/2000/svg"><path fill-rule="evenodd" clip-rule="evenodd" d="M1.414,3.65c0,0,0.709,0.29,1.246-0.199c0.311-0.282,0.2-0.597,0.008-0.69   c0,0,0.447-0.178,0.533,0.398c0.078,0.523-0.834,0.851-0.681,1.345c0,0-0.428-0.084-0.381-0.455C2.138,4.05,1.644,4.089,1.414,3.65   z"></path><path fill-rule="evenodd" clip-rule="evenodd" d="M2.977,4.023c0,0,0.6-0.475,0.438-1.183C3.322,2.432,2.993,2.374,2.818,2.496   c0,0,0.064-0.477,0.608-0.269C3.921,2.416,3.759,3.371,4.265,3.48c0,0-0.284,0.332-0.583,0.109   C3.682,3.589,3.474,4.039,2.977,4.023z"></path><path fill-rule="evenodd" clip-rule="evenodd" d="M4.07,2.844c0,0-0.12-0.756-0.816-0.961C2.852,1.764,2.64,2.022,2.661,2.234   c0,0-0.384-0.291,0.064-0.663c0.406-0.338,1.16,0.271,1.503-0.116c0,0,0.149,0.41-0.191,0.562C4.037,2.018,4.327,2.419,4.07,2.844z   "></path><path fill-rule="evenodd" clip-rule="evenodd" d="M3.579,1.314c0,0-0.718-0.266-1.238,0.239C2.04,1.845,2.16,2.157,2.355,2.243   c0,0-0.441,0.192-0.545-0.381C1.714,1.341,2.615,0.984,2.446,0.495c0,0,0.431,0.071,0.396,0.442   C2.841,0.937,3.334,0.882,3.579,1.314z"></path><path fill-rule="evenodd" clip-rule="evenodd" d="M2.004,0.991c0,0-0.584,0.495-0.399,1.197c0.107,0.405,0.438,0.453,0.608,0.325   c0,0-0.049,0.479-0.6,0.289c-0.5-0.172-0.37-1.133-0.878-1.225c0,0,0.272-0.34,0.579-0.128C1.313,1.449,1.507,0.993,2.004,0.991z"></path><path fill-rule="evenodd" clip-rule="evenodd" d="M0.95,2.206c0,0,0.145,0.752,0.847,0.935C2.203,3.246,2.406,2.981,2.379,2.77   c0,0,0.393,0.277-0.042,0.665C1.941,3.785,1.168,3.2,0.837,3.599c0,0-0.163-0.405,0.172-0.567C1.01,3.031,0.708,2.639,0.95,2.206z"></path></g></g><g id="SvgjsG1317" featurekey="J3GnXt-0" transform="matrix(2.7899839041436865,0,0,2.7899839041436865,98.81502414378447,21.70649357408311)" fill="#d72323"><path d="M6.54 5.84 c1.5067 0 2.8134 0.31 3.92 0.93 s1.9533 1.47 2.54 2.55 s0.88 2.28 0.88 3.6 s-0.32666 2.5234 -0.98 3.61 s-1.5667 1.9367 -2.74 2.55 s-2.48 0.92 -3.92 0.92 l-4.74 0 l0 -14.16 l5.04 0 z M5.94 18.2 c1.08 0 2.07 -0.21002 2.97 -0.63002 s1.6133 -1.0233 2.14 -1.81 s0.79 -1.7333 0.79 -2.84 c0 -1.6 -0.49666 -2.88 -1.49 -3.84 s-2.31 -1.44 -3.95 -1.44 l-2.98 0 l0 10.56 l2.52 0 z M20.76 10.28 c1.4 0 2.5866 0.48338 3.56 1.45 s1.4667 2.1434 1.48 3.53 c0 1.4 -0.48666 2.5734 -1.46 3.52 s-2.1666 1.4333 -3.58 1.46 c-1.3867 0 -2.5666 -0.48 -3.54 -1.44 s-1.4733 -2.14 -1.5 -3.54 c0 -1.3733 0.48334 -2.54 1.45 -3.5 s2.1634 -1.4533 3.59 -1.48 z M17.64 15.26 c0 0.97334 0.28664 1.7633 0.85998 2.37 s1.3267 0.91666 2.26 0.93 c0.94666 0 1.7 -0.30334 2.26 -0.91 s0.84666 -1.4033 0.86 -2.39 c0 -0.97334 -0.28 -1.7633 -0.84 -2.37 s-1.3267 -0.91666 -2.3 -0.93 c-0.94666 0 -1.7 0.31334 -2.26 0.94 s-0.84 1.4133 -0.84 2.36 z M33.02 10.28 c1.0667 0 1.9033 0.32 2.51 0.96 s0.91666 1.5 0.93 2.58 l0 6.18 l-1.8 0 l0 -5.66 c0 -0.73334 -0.19 -1.3133 -0.57 -1.74 s-0.91 -0.64 -1.59 -0.64 c-0.84 0 -1.49 0.28 -1.95 0.84 s-0.69 1.3067 -0.69 2.24 l0 4.96 l-1.8 0 l0 -9.48 l1.8 0 l0 1.46 l0.04 0 c0.25334 -0.53334 0.66334 -0.95 1.23 -1.25 s1.1967 -0.45 1.89 -0.45 z M43.52000000000001 10.28 c1.4533 0 2.5834 0.45664 3.39 1.37 s1.2167 2.17 1.23 3.77 l0 0.5 l-7.6 0 c0 0.77334 0.31 1.4233 0.93 1.95 s1.3767 0.79666 2.27 0.81 c0.98666 0 1.8533 -0.47334 2.6 -1.42 l1.36 1.04 c-1.0133 1.2933 -2.4134 1.94 -4.2 1.94 c-1.4533 0 -2.6234 -0.46334 -3.51 -1.39 s-1.3433 -2.1234 -1.37 -3.59 c0 -1.4133 0.45666 -2.59 1.37 -3.53 s2.09 -1.4233 3.53 -1.45 z M46.220000000000006 14.48 c-0.02666 -0.89334 -0.28 -1.5767 -0.76 -2.05 s-1.14 -0.71 -1.98 -0.71 c-0.56 0 -1.0633 0.13666 -1.51 0.41 s-0.79666 0.62668 -1.05 1.06 s-0.38 0.86334 -0.38 1.29 l5.68 0 z M55.48000000000001 5.84 c1.5067 0 2.8134 0.31 3.92 0.93 s1.9533 1.47 2.54 2.55 s0.88 2.28 0.88 3.6 s-0.32666 2.5234 -0.98 3.61 s-1.5667 1.9367 -2.74 2.55 s-2.48 0.92 -3.92 0.92 l-4.74 0 l0 -14.16 l5.04 0 z M54.88000000000001 18.2 c1.08 0 2.07 -0.21002 2.97 -0.63002 s1.6133 -1.0233 2.14 -1.81 s0.79 -1.7333 0.79 -2.84 c0 -1.6 -0.49666 -2.88 -1.49 -3.84 s-2.31 -1.44 -3.95 -1.44 l-2.98 0 l0 10.56 l2.52 0 z M69.70000000000002 10.28 c1.4 0 2.5866 0.48338 3.56 1.45 s1.4667 2.1434 1.48 3.53 c0 1.4 -0.48666 2.5734 -1.46 3.52 s-2.1666 1.4333 -3.58 1.46 c-1.3867 0 -2.5666 -0.48 -3.54 -1.44 s-1.4733 -2.14 -1.5 -3.54 c0 -1.3733 0.48334 -2.54 1.45 -3.5 s2.1634 -1.4533 3.59 -1.48 z M66.58000000000001 15.26 c0 0.97334 0.28664 1.7633 0.85998 2.37 s1.3267 0.91666 2.26 0.93 c0.94666 0 1.7 -0.30334 2.26 -0.91 s0.84666 -1.4033 0.86 -2.39 c0 -0.97334 -0.28 -1.7633 -0.84 -2.37 s-1.3267 -0.91666 -2.3 -0.93 c-0.94666 0 -1.7 0.31334 -2.26 0.94 s-0.84 1.4133 -0.84 2.36 z M81.96000000000001 10.28 c1.0667 0 1.9033 0.32 2.51 0.96 s0.91666 1.5 0.93 2.58 l0 6.18 l-1.8 0 l0 -5.66 c0 -0.73334 -0.19 -1.3133 -0.57 -1.74 s-0.91 -0.64 -1.59 -0.64 c-0.84 0 -1.49 0.28 -1.95 0.84 s-0.69 1.3067 -0.69 2.24 l0 4.96 l-1.8 0 l0 -9.48 l1.8 0 l0 1.46 l0.04 0 c0.25334 -0.53334 0.66334 -0.95 1.23 -1.25 s1.1967 -0.45 1.89 -0.45 z M92.46000000000002 10.28 c1.4533 0 2.5834 0.45664 3.39 1.37 s1.2167 2.17 1.23 3.77 l0 0.5 l-7.6 0 c0 0.77334 0.31 1.4233 0.93 1.95 s1.3767 0.79666 2.27 0.81 c0.98666 0 1.8533 -0.47334 2.6 -1.42 l1.36 1.04 c-1.0133 1.2933 -2.4134 1.94 -4.2 1.94 c-1.4533 0 -2.6234 -0.46334 -3.51 -1.39 s-1.3433 -2.1234 -1.37 -3.59 c0 -1.4133 0.45666 -2.59 1.37 -3.53 s2.09 -1.4233 3.53 -1.45 z M95.16000000000003 14.48 c-0.02666 -0.89334 -0.28 -1.5767 -0.76 -2.05 s-1.14 -0.71 -1.98 -0.71 c-0.56 0 -1.0633 0.13666 -1.51 0.41 s-0.79666 0.62668 -1.05 1.06 s-0.38 0.86334 -0.38 1.29 l5.68 0 z"></path></g></svg>