<svg width="24" height="24" viewBox="0 0 24 24" fill="none" xmlns="http://www.w3.org/2000/svg">
<g clip-path="url(#clip0_1202_300)">
<path d="M16.95 16.95C15.5255 18.0358 13.791 18.6374 12 18.6667C6.16671 18.6667 2.83337 12 2.83337 12C3.86995 10.0682 5.30765 8.38051 7.05004 7.05M10.25 5.53333C10.8237 5.39907 11.4109 5.33195 12 5.33333C17.8334 5.33333 21.1667 12 21.1667 12C20.6609 12.9463 20.0576 13.8373 19.3667 14.6583M13.7667 13.7667C13.5378 14.0123 13.2618 14.2093 12.9552 14.3459C12.6485 14.4826 12.3175 14.556 11.9818 14.562C11.6461 14.5679 11.3127 14.5061 11.0014 14.3804C10.6901 14.2547 10.4073 14.0675 10.1699 13.8301C9.93252 13.5927 9.74537 13.31 9.61963 12.9987C9.4939 12.6874 9.43215 12.3539 9.43807 12.0183C9.44399 11.6826 9.51746 11.3515 9.6541 11.0449C9.79074 10.7382 9.98775 10.4622 10.2334 10.2333" stroke="#808080" stroke-width="1.44545" stroke-linecap="round" stroke-linejoin="round"/>
<path d="M2.83337 2.83331L21.1667 21.1666" stroke="#808080" stroke-width="1.44545" stroke-linecap="round" stroke-linejoin="round"/>
</g>
<defs>
<clipPath id="clip0_1202_300">
<rect width="20" height="20" fill="white" transform="translate(2 2)"/>
</clipPath>
</defs>
</svg>
