<svg width="25" height="25" viewBox="0 0 25 25" fill="none" xmlns="http://www.w3.org/2000/svg">
<path d="M3.66846 6.07129H5.66846H21.6685" stroke="#808080" stroke-width="1.5" stroke-linecap="round" stroke-linejoin="round"/>
<path d="M19.6685 6.07129V20.0713C19.6685 20.6017 19.4577 21.1104 19.0827 21.4855C18.7076 21.8606 18.1989 22.0713 17.6685 22.0713H7.66846C7.13802 22.0713 6.62932 21.8606 6.25424 21.4855C5.87917 21.1104 5.66846 20.6017 5.66846 20.0713V6.07129M8.66846 6.07129V4.07129C8.66846 3.54086 8.87917 3.03215 9.25424 2.65708C9.62932 2.282 10.138 2.07129 10.6685 2.07129H14.6685C15.1989 2.07129 15.7076 2.282 16.0827 2.65708C16.4577 3.03215 16.6685 3.54086 16.6685 4.07129V6.07129" stroke="#808080" stroke-width="1.5" stroke-linecap="round" stroke-linejoin="round"/>
<path d="M10.6685 11.0713V17.0713" stroke="#808080" stroke-width="1.5" stroke-linecap="round" stroke-linejoin="round"/>
<path d="M14.6685 11.0713V17.0713" stroke="#808080" stroke-width="1.5" stroke-linecap="round" stroke-linejoin="round"/>
</svg>
