<svg version="1.1" width="20" height="20" xmlns="http://www.w3.org/2000/svg" xmlns:xlink="http://www.w3.org/1999/xlink" viewBox="0 0 172 172"><g transform="translate(7.482,7.482) scale(0.913,0.913)"><g fill="none" fill-rule="nonzero" stroke="none" stroke-width="1" stroke-linecap="butt" stroke-linejoin="miter" stroke-miterlimit="10" stroke-dasharray="" stroke-dashoffset="0" font-family="none" font-weight="none" font-size="none" text-anchor="none" style="mix-blend-mode: normal"><path d="M0,172v-172h172v172z" fill="none"></path><g fill="#2ecc71"><path d="M86,0c-47.42037,0 -86,38.57963 -86,86c0,47.42037 38.57963,86 86,86c47.42037,0 86,-38.57963 86,-86c0,-47.42037 -38.57963,-86 -86,-86zM86,166.26667c-44.25976,0 -80.26667,-36.00691 -80.26667,-80.26667c0,-44.25976 36.00691,-80.26667 80.26667,-80.26667c44.25976,0 80.26667,36.00691 80.26667,80.26667c0,44.25976 -36.00691,80.26667 -80.26667,80.26667z"></path><path d="M129.86505,58.14798l-56.71465,55.33031l-30.96505,-31.75868c-1.10301,-1.13239 -2.91984,-1.15478 -4.05364,-0.0504c-1.1338,1.10438 -1.15618,2.91984 -0.0504,4.05364l32.96667,33.8121c0.5291,0.54449 1.25698,0.85524 2.01561,0.86505c0.01121,0 0.0252,0 0.03641,0c0.74745,0 1.46693,-0.29254 2.00162,-0.81465l58.76667,-57.33333c1.1338,-1.10579 1.15618,-2.92125 0.0504,-4.05364c-1.10579,-1.1352 -2.91984,-1.152 -4.05364,-0.0504z"></path></g></g></g></svg>